<?xml version="1.0" standalone="no"?>
<!DOCTYPE svg PUBLIC "-//W3C//DTD SVG 20010904//EN"
 "http://www.w3.org/TR/2001/REC-SVG-20010904/DTD/svg10.dtd">
<svg version="1.0" xmlns="http://www.w3.org/2000/svg"
 width="1030.000000pt" height="1030.000000pt" viewBox="0 0 1030.000000 1030.000000"
 preserveAspectRatio="xMidYMid meet">
<metadata>
Created by potrace 1.14, written by Peter Selinger 2001-2017
</metadata>
<g transform="translate(0.000000,1030.000000) scale(0.100000,-0.100000)"
fill="#000000" stroke="none">
<path d="M5100 7883 c0 -9 -19 -13 -63 -13 -37 0 -69 -5 -76 -12 -11 -11 -12
-10 -6 2 7 12 6 13 -7 2 -8 -6 -33 -14 -54 -16 -21 -1 -47 -6 -56 -11 -10 -4
-29 -8 -43 -9 -14 0 -25 -5 -25 -10 0 -4 -7 -6 -15 -2 -8 3 -15 1 -15 -4 0 -6
-9 -10 -20 -10 -12 0 -34 -7 -50 -15 -17 -9 -30 -13 -30 -9 0 4 -6 1 -13 -5
-8 -6 -16 -8 -19 -5 -3 3 -21 -4 -41 -15 -27 -15 -38 -17 -47 -8 -10 9 -11 9
-6 0 5 -9 0 -13 -13 -13 -12 0 -21 -5 -21 -11 0 -6 -7 -9 -15 -5 -8 3 -14 0
-12 -7 1 -7 -4 -11 -10 -9 -7 1 -13 -3 -13 -9 0 -6 -6 -9 -14 -6 -8 3 -22 -1
-33 -9 -10 -9 -12 -12 -4 -8 9 4 12 3 8 -4 -4 -5 -17 -8 -29 -4 -11 3 -19 1
-16 -4 3 -5 0 -15 -8 -22 -8 -7 -14 -10 -14 -7 0 4 -13 -3 -30 -15 -16 -12
-34 -18 -40 -15 -5 3 -10 -1 -10 -10 0 -9 -5 -13 -10 -10 -6 3 -13 0 -16 -9
-3 -9 -12 -12 -21 -9 -9 4 -14 2 -11 -3 3 -5 0 -15 -8 -22 -8 -7 -14 -11 -14
-8 0 3 -10 -5 -23 -17 -13 -12 -22 -25 -19 -30 2 -4 0 -7 -5 -6 -4 1 -19 -3
-33 -9 -14 -6 -21 -11 -16 -11 11 -1 -42 -51 -53 -51 -5 0 -11 -7 -15 -15 -3
-8 -13 -15 -21 -15 -9 0 -14 -3 -12 -7 3 -5 -1 -13 -8 -20 -11 -10 -15 -10
-18 0 -3 7 -6 4 -6 -5 -1 -10 -8 -18 -17 -18 -14 0 -15 -3 -3 -17 7 -10 9 -15
5 -11 -5 4 -16 2 -24 -5 -13 -10 -14 -9 -7 2 6 10 4 12 -4 7 -7 -5 -10 -15 -7
-23 3 -8 1 -11 -4 -8 -6 3 -10 1 -10 -4 0 -6 -9 -11 -19 -11 -14 0 -19 -6 -16
-19 3 -14 -1 -18 -16 -14 -13 4 -19 1 -17 -8 2 -7 -4 -13 -12 -14 -8 0 -15 -7
-15 -15 0 -23 -32 -63 -44 -55 -7 3 -11 3 -10 -2 5 -17 -24 -62 -35 -56 -6 4
-4 -2 4 -12 12 -15 12 -17 1 -10 -11 6 -13 4 -7 -10 6 -16 4 -16 -11 -4 -10 9
-14 9 -9 2 4 -7 -2 -20 -13 -30 -16 -14 -18 -20 -8 -32 9 -12 9 -13 0 -7 -12
7 -15 3 -17 -26 -1 -7 -9 -19 -19 -26 -14 -11 -15 -17 -6 -34 8 -15 8 -19 0
-14 -6 4 -14 -1 -18 -11 -4 -10 -11 -21 -17 -25 -7 -6 -6 -11 4 -18 13 -9 13
-10 0 -11 -8 -1 -19 -1 -23 0 -5 1 -6 -3 -2 -9 3 -6 10 -8 14 -6 4 3 8 -1 8
-8 0 -8 -7 -12 -15 -8 -12 4 -14 0 -10 -16 3 -12 3 -20 -1 -19 -3 1 -7 -1 -8
-6 -2 -4 -9 -20 -16 -35 -8 -15 -12 -33 -9 -41 3 -9 0 -11 -8 -6 -8 5 -11 4
-7 -2 4 -6 0 -24 -8 -39 -10 -21 -11 -31 -3 -41 8 -11 7 -12 -7 -7 -15 6 -17
3 -12 -15 3 -15 0 -24 -10 -28 -12 -5 -12 -7 -1 -14 11 -7 11 -9 -1 -9 -7 0
-11 -6 -7 -15 3 -8 1 -15 -3 -15 -5 0 -7 -10 -3 -22 3 -12 1 -19 -5 -15 -5 3
-10 0 -10 -8 0 -8 3 -12 7 -10 4 2 7 -2 7 -10 0 -8 -4 -12 -9 -9 -4 3 -8 1 -8
-5 0 -5 6 -11 13 -14 10 -4 10 -7 0 -18 -7 -7 -13 -17 -13 -22 0 -4 6 -5 13
-1 9 6 9 4 -1 -8 -10 -13 -10 -17 0 -21 9 -4 8 -6 -3 -6 -12 -1 -16 -9 -14
-31 1 -16 -2 -30 -7 -30 -6 0 -7 -7 -4 -16 4 -10 2 -13 -6 -8 -8 5 -9 2 -5
-11 4 -9 2 -24 -5 -33 -15 -18 -15 -22 4 -33 10 -7 8 -9 -7 -9 -18 -1 -18 -2
-3 -11 9 -5 15 -16 12 -24 -4 -8 -11 -12 -17 -8 -6 4 -7 1 -2 -8 14 -22 15
-60 2 -52 -7 4 -6 0 2 -10 11 -14 11 -17 0 -17 -11 0 -11 -2 1 -10 10 -6 11
-10 3 -10 -7 0 -13 -7 -13 -16 0 -9 5 -12 13 -8 7 5 7 1 -2 -10 -13 -15 -13
-19 0 -27 11 -7 10 -9 -6 -9 -17 0 -17 -2 -5 -10 8 -5 11 -10 7 -10 -4 0 -3
-8 2 -18 7 -14 6 -25 -6 -42 -9 -13 -11 -20 -5 -16 8 5 11 0 8 -16 -3 -13 -5
-24 -7 -25 -1 -2 -2 -7 -3 -12 0 -5 -5 -13 -10 -18 -5 -5 -6 -3 -2 5 4 6 2 12
-3 12 -10 0 -15 -29 -14 -69 1 -9 -2 -10 -10 -2 -13 13 -31 15 -23 2 3 -5 0
-9 -7 -8 -32 1 -48 -4 -42 -13 3 -5 2 -10 -3 -10 -5 0 -9 -18 -10 -40 -1 -22
3 -40 9 -40 5 0 7 -4 4 -10 -3 -5 -2 -10 4 -10 6 0 7 -7 4 -17 -4 -9 -2 -14 3
-10 6 3 9 -10 8 -34 -1 -25 2 -37 9 -32 6 4 7 1 2 -8 -13 -21 -12 -72 2 -93
10 -16 10 -23 0 -35 -9 -12 -9 -13 1 -7 7 4 12 2 12 -4 0 -6 5 -8 13 -4 8 5 8
2 -2 -9 -9 -11 -10 -17 -2 -17 6 0 11 -11 11 -25 0 -14 5 -25 10 -25 6 0 10
-5 10 -11 0 -5 -4 -8 -8 -5 -5 3 -9 -1 -9 -9 0 -8 4 -12 9 -9 9 6 11 -8 8 -43
-1 -13 4 -23 10 -23 7 0 10 -8 7 -20 -3 -13 0 -20 8 -20 8 0 17 -4 20 -10 3
-6 -1 -7 -10 -4 -11 5 -14 2 -9 -10 3 -9 10 -16 15 -16 5 0 4 -11 -1 -24 -5
-14 -5 -27 1 -33 5 -5 10 -35 10 -66 1 -31 5 -54 10 -51 5 3 6 -2 3 -10 -3 -9
-1 -16 6 -16 7 0 9 -8 5 -21 -5 -14 -2 -25 6 -30 11 -7 9 -9 -5 -9 -18 0 -19
-1 -3 -12 16 -12 25 -37 30 -78 1 -8 4 -17 7 -20 13 -13 30 -51 21 -45 -6 3
-11 2 -11 -4 0 -5 4 -12 8 -15 5 -3 8 -19 7 -36 -1 -24 2 -30 13 -25 12 4 13
3 2 -10 -10 -12 -10 -18 0 -30 6 -8 8 -20 4 -27 -6 -11 -5 -11 8 0 13 10 15 9
10 -13 -3 -19 0 -25 12 -25 10 0 14 -4 11 -10 -3 -5 -1 -10 5 -10 6 0 8 -5 4
-12 -4 -6 -3 -8 3 -5 6 4 21 -2 33 -13 26 -23 38 -26 21 -7 -8 11 -6 13 10 12
11 -1 25 -8 30 -16 7 -12 9 -12 9 0 0 8 3 11 7 8 3 -4 12 -2 20 5 11 8 12 7 7
-6 -5 -12 0 -19 15 -23 11 -3 21 -10 21 -15 0 -5 -4 -7 -8 -4 -5 3 -9 -1 -9
-9 0 -8 4 -12 9 -9 4 3 8 -14 8 -38 0 -24 6 -50 13 -57 10 -11 10 -13 0 -7 -8
5 -13 1 -13 -9 0 -10 5 -13 12 -9 7 5 8 3 2 -7 -13 -21 -14 -39 -1 -39 7 0 5
-5 -3 -10 -8 -5 -10 -10 -4 -10 6 0 11 -6 11 -12 0 -7 4 -22 9 -32 6 -15 4
-17 -7 -11 -8 5 -5 -1 5 -13 11 -12 16 -25 13 -29 -4 -3 -7 -1 -7 5 0 7 -4 12
-9 12 -4 0 -6 -11 -3 -25 2 -14 9 -22 15 -18 6 4 8 0 4 -9 -3 -9 0 -21 6 -28
9 -9 9 -11 1 -7 -13 7 -12 -42 0 -75 14 -40 14 -47 3 -52 -7 -2 -3 -5 8 -5 17
-1 17 -3 5 -11 -8 -5 -10 -10 -3 -10 6 0 9 -9 6 -20 -3 -12 0 -20 7 -20 6 0
10 -6 7 -12 -2 -7 0 -22 6 -33 9 -17 8 -18 -4 -10 -8 6 -7 3 3 -7 13 -12 15
-18 6 -21 -10 -4 -10 -8 1 -15 11 -8 11 -10 0 -15 -11 -4 -10 -6 2 -6 11 -1
14 -9 11 -31 -3 -18 0 -30 7 -30 6 0 11 -9 11 -19 0 -11 6 -22 13 -24 9 -4 9
-6 0 -6 -7 -1 -13 -6 -13 -12 0 -6 7 -8 16 -5 8 3 12 2 9 -3 -3 -5 -1 -12 3
-15 5 -3 8 -17 7 -30 -2 -14 4 -31 13 -38 16 -12 16 -11 2 6 -14 18 -14 18 7
6 18 -12 19 -16 7 -24 -12 -10 -12 -14 1 -34 9 -12 21 -20 26 -16 5 3 9 2 8
-3 -1 -4 -1 -21 0 -38 1 -24 3 -27 12 -15 9 13 10 12 5 -2 -3 -10 -9 -26 -12
-35 -5 -15 -4 -15 5 -3 5 8 13 12 16 8 3 -3 -1 -13 -10 -22 -9 -9 -12 -16 -6
-16 6 0 10 -17 9 -37 0 -21 1 -42 2 -48 7 -39 -3 -141 -15 -151 -8 -6 -11 -14
-7 -18 4 -4 -1 -12 -11 -17 -9 -6 -15 -14 -12 -20 4 -5 -1 -9 -10 -9 -12 0
-15 -5 -11 -16 5 -12 2 -15 -10 -10 -12 5 -14 1 -8 -17 3 -12 3 -19 -1 -15 -8
8 -55 -40 -55 -55 0 -5 -5 -5 -12 -1 -8 5 -9 2 -5 -9 4 -10 2 -16 -6 -14 -7 1
-11 -6 -11 -15 1 -10 -2 -16 -6 -13 -11 7 -41 -30 -33 -39 5 -4 4 -7 -2 -6
-24 5 -34 -1 -28 -17 3 -10 3 -15 -1 -11 -11 9 -36 -14 -28 -26 3 -5 -2 -7
-11 -3 -11 4 -21 -1 -28 -14 -6 -11 -13 -18 -16 -15 -4 3 -11 -4 -17 -16 -6
-13 -20 -24 -31 -27 -11 -2 -24 -10 -28 -17 -5 -8 -12 -12 -18 -9 -5 4 -9 1
-9 -4 0 -6 -3 -10 -7 -9 -13 4 -53 -28 -46 -36 4 -4 0 -4 -9 -1 -19 7 -80 -24
-72 -37 3 -4 -3 -5 -12 -1 -13 5 -15 3 -9 -7 6 -10 4 -12 -8 -7 -9 3 -19 2
-22 -3 -4 -6 -15 -10 -26 -10 -10 0 -19 -4 -19 -9 0 -6 -18 -9 -40 -9 -22 0
-47 -5 -55 -12 -12 -10 -15 -10 -15 1 0 10 -3 10 -12 1 -7 -7 -17 -8 -29 -2
-12 7 -20 6 -25 -1 -4 -8 -9 -7 -15 2 -7 11 -9 11 -9 1 0 -7 -4 -10 -10 -7 -5
3 -10 0 -10 -7 0 -9 -3 -9 -10 2 -5 8 -10 10 -10 4 0 -6 -15 -11 -32 -12 -18
0 -55 -3 -83 -6 -27 -4 -67 -8 -88 -10 -21 -2 -40 -6 -43 -8 -3 -3 -20 -2 -39
2 -25 6 -38 4 -46 -6 -9 -12 -15 -12 -27 -2 -13 10 -14 10 -8 0 9 -15 1 -15
-26 -1 -13 7 -18 7 -14 1 4 -7 -8 -9 -34 -7 -22 2 -38 0 -35 -5 3 -5 0 -12 -6
-16 -7 -4 -9 -3 -5 4 3 6 2 13 -4 17 -5 3 -10 1 -10 -5 0 -6 -14 -9 -36 -7
-22 3 -41 -1 -50 -10 -9 -10 -14 -11 -14 -2 0 8 -5 8 -17 -2 -11 -10 -14 -10
-9 -1 4 6 3 12 -3 12 -5 0 -11 -4 -13 -9 -1 -5 -28 -11 -60 -13 -31 -1 -54 -6
-52 -10 3 -5 -4 -8 -15 -8 -11 0 -23 -5 -26 -10 -4 -7 -12 -7 -25 0 -14 7 -23
6 -33 -4 -11 -11 -17 -12 -27 -3 -10 9 -11 9 -5 -1 4 -8 2 -12 -6 -11 -22 4
-69 -12 -69 -23 0 -6 -7 -8 -15 -4 -8 3 -15 1 -15 -5 0 -6 -8 -9 -18 -8 -9 2
-27 -2 -38 -9 -12 -6 -24 -8 -28 -5 -3 3 -6 1 -6 -5 0 -16 6595 -17 6605 -2 3
6 -1 10 -10 10 -10 0 -14 5 -9 13 5 9 4 9 -6 0 -9 -8 -19 -9 -32 -2 -10 5 -22
8 -27 5 -5 -3 -14 1 -21 10 -7 8 -19 13 -27 10 -8 -4 -11 -1 -7 5 4 7 -4 10
-24 8 -20 -2 -38 3 -53 16 -14 12 -19 14 -14 5 6 -12 5 -13 -6 -2 -7 6 -21 12
-32 12 -10 0 -16 3 -14 8 3 4 -11 8 -31 10 -21 1 -38 7 -40 12 -2 6 -14 10
-27 10 -13 0 -27 5 -30 11 -4 6 -13 8 -20 5 -7 -2 -18 1 -25 7 -10 9 -11 9 -5
-3 6 -11 3 -10 -12 3 -11 9 -23 14 -26 10 -4 -3 -7 -2 -7 4 0 6 -17 14 -37 18
-21 4 -41 12 -45 18 -6 9 -8 8 -8 -1 0 -10 -4 -9 -16 2 -8 9 -20 14 -25 10 -6
-3 -15 -1 -22 5 -7 5 -36 10 -64 9 -29 0 -58 4 -64 8 -22 13 -60 14 -52 1 4
-7 0 -6 -10 2 -9 7 -17 10 -17 6 0 -4 -6 -3 -12 1 -7 5 -25 9 -40 8 -16 0 -28
4 -28 9 0 6 -6 2 -14 -9 -13 -17 -15 -17 -21 -2 -4 9 -13 19 -21 22 -9 3 -12
1 -9 -4 3 -6 -1 -10 -9 -10 -8 0 -18 5 -21 11 -4 6 -14 8 -22 5 -8 -3 -20 -3
-26 1 -12 7 -19 9 -82 17 -60 8 -88 15 -98 25 -7 7 -17 7 -29 0 -10 -5 -18 -6
-17 -2 3 20 -2 24 -16 13 -12 -10 -15 -10 -15 4 0 11 -9 16 -31 16 -16 0 -28
4 -25 8 2 4 -3 8 -12 9 -29 2 -47 8 -53 16 -3 4 -16 9 -27 10 -12 1 -22 7 -22
15 0 7 -4 10 -10 7 -5 -3 -10 -2 -10 3 0 6 -9 8 -21 5 -15 -4 -22 0 -26 15 -3
14 -10 19 -21 15 -10 -4 -13 -2 -8 5 4 8 1 12 -10 12 -10 0 -15 3 -11 6 3 3 0
12 -6 19 -9 9 -17 10 -31 3 -13 -7 -16 -7 -11 1 9 15 -40 65 -55 56 -5 -3 -11
-1 -11 4 -1 6 -3 16 -4 21 -1 6 -3 13 -4 18 -1 4 -5 1 -9 -6 -6 -9 -12 -5 -22
13 -7 14 -17 25 -22 25 -5 0 -6 6 -2 13 5 7 0 6 -11 -3 -10 -8 -16 -10 -12 -3
9 14 -21 53 -41 53 -7 0 -10 5 -7 10 3 6 -3 10 -15 10 -12 0 -18 5 -15 10 3 6
1 10 -5 10 -6 0 -8 5 -5 10 3 5 0 10 -7 10 -7 0 -19 9 -26 20 -7 12 -18 18
-24 14 -7 -4 -8 -3 -4 4 4 7 -6 25 -23 41 -26 25 -31 39 -34 86 -2 31 0 58 3
60 4 3 5 15 3 28 -4 17 3 30 21 45 18 14 22 22 14 25 -8 4 -5 8 8 12 13 4 21
14 20 23 -2 10 3 22 11 27 7 6 14 22 15 37 2 19 6 24 14 17 8 -6 11 -4 11 8 0
50 3 59 14 43 9 -13 10 -12 5 3 -9 28 11 67 31 61 17 -5 17 -5 0 6 -17 11 -16
13 5 31 13 11 17 17 10 14 -11 -6 -11 -3 -3 14 29 56 29 59 18 71 -9 10 -9 11
2 5 11 -6 13 -4 8 8 -3 10 -2 17 4 17 6 0 7 5 4 10 -3 6 0 10 7 10 10 0 10 2
-1 9 -9 6 -10 10 -2 16 9 5 9 11 -1 23 -11 14 -10 15 6 9 16 -6 17 -5 6 8 -8
9 -8 15 -2 15 6 0 11 21 10 51 0 33 5 55 14 60 11 7 11 12 0 30 -9 14 -9 19
-2 14 9 -5 11 8 8 49 -1 31 1 56 5 56 5 0 5 10 2 21 -4 12 -3 19 2 16 5 -3 10
3 10 14 1 12 -3 17 -10 13 -9 -5 -9 -4 0 6 6 7 9 19 6 27 -3 8 0 19 8 24 12 7
12 9 -1 9 -10 0 -7 5 8 16 12 8 22 24 22 35 0 20 15 26 24 10 3 -5 16 -7 28
-3 14 3 19 2 14 -6 -4 -7 -2 -12 3 -12 6 0 11 6 11 13 0 8 4 7 10 -3 9 -13 12
-13 24 3 7 9 21 17 30 17 10 0 14 5 11 10 -3 6 -1 10 4 10 6 0 11 10 11 23 0
18 2 19 10 7 8 -12 10 -8 11 15 1 17 1 34 0 38 -1 5 3 6 9 2 10 -6 14 7 11 34
-2 7 2 10 8 6 7 -4 8 0 4 10 -3 10 0 21 7 25 7 4 13 19 13 34 0 14 3 23 8 20
5 -3 9 4 9 16 0 13 4 19 11 14 7 -4 7 1 -1 16 -7 13 -8 20 -2 16 7 -4 14 8 18
29 4 22 10 32 18 28 6 -4 4 2 -4 12 -9 11 -10 16 -2 11 8 -5 12 1 12 18 0 14
4 26 10 26 5 0 9 3 8 8 -3 14 15 87 24 99 5 6 8 17 7 25 -1 7 -1 31 0 53 1 30
4 36 11 25 5 -8 10 -10 10 -4 0 5 -5 15 -12 22 -9 9 -9 12 0 12 7 0 12 9 12
20 0 11 4 20 10 20 5 0 12 16 16 35 3 19 10 32 15 29 5 -3 6 2 3 10 -3 9 -1
16 6 16 6 0 8 5 5 10 -4 6 -1 17 5 25 6 8 9 19 5 25 -3 5 1 13 9 16 9 3 14 10
11 14 -3 5 -1 11 3 14 14 9 13 68 -1 60 -8 -5 -8 -3 1 7 6 7 12 17 12 22 0 4
-6 5 -12 2 -7 -4 -4 0 6 9 16 13 17 18 6 31 -7 8 -8 15 -3 15 5 0 10 6 10 14
0 9 -6 12 -16 8 -14 -5 -14 -4 -1 13 9 11 10 16 3 11 -7 -4 -13 -2 -13 3 0 6
5 11 11 11 8 0 8 4 0 14 -9 11 -9 16 0 22 8 4 9 3 5 -4 -4 -7 -3 -12 2 -12 5
0 12 9 15 20 3 13 1 18 -5 13 -7 -4 -8 -1 -2 8 12 20 14 80 1 72 -6 -4 -8 4
-5 20 4 21 0 27 -21 32 -24 7 -25 8 -6 15 18 8 18 9 2 9 -10 1 -15 6 -12 11 4
6 2 16 -4 23 -5 7 -12 25 -15 40 -2 15 -8 32 -12 38 -4 8 -3 9 4 5 7 -4 12 -4
13 1 4 44 3 76 -4 80 -4 2 -4 9 -1 15 4 6 0 14 -7 19 -10 6 -11 9 -1 9 6 0 12
5 12 11 0 5 -4 7 -10 4 -6 -4 -7 2 -2 17 11 28 4 88 -11 107 -10 12 -9 13 8 7
17 -6 16 -3 -5 20 -14 15 -19 24 -13 20 9 -5 11 -2 7 8 -3 9 -11 13 -16 10 -6
-4 -5 3 1 15 8 14 8 21 1 21 -5 0 -10 15 -10 34 0 19 -6 36 -12 39 -10 3 -10
9 -1 25 11 18 10 20 -1 16 -8 -3 -17 0 -22 7 -4 8 -3 10 4 5 7 -4 12 -2 12 3
0 6 -6 11 -12 11 -9 0 -8 4 2 10 13 9 13 10 0 10 -13 0 -13 1 0 10 13 9 13 10
0 10 -13 0 -13 1 0 10 13 9 13 10 0 10 -13 0 -13 1 0 10 10 6 11 10 3 10 -7 0
-13 5 -13 11 0 5 6 7 13 3 6 -4 2 3 -10 14 -12 12 -20 29 -19 39 2 10 -4 24
-13 31 -9 8 -10 11 -4 7 14 -7 7 20 -11 44 -9 12 -8 13 2 7 8 -5 3 12 -11 37
-20 34 -23 48 -14 57 9 10 9 11 -3 5 -13 -8 -13 -7 -1 8 11 15 11 17 -2 17
-11 0 -13 6 -9 22 3 14 2 19 -6 14 -7 -4 -12 -1 -12 9 0 10 5 13 13 9 6 -4 2
4 -10 18 -13 13 -23 28 -23 34 0 5 5 2 10 -6 6 -9 10 -10 10 -3 0 7 -8 17 -17
22 -14 8 -15 11 -3 11 11 0 10 3 -4 11 -15 9 -16 13 -5 20 11 7 10 9 -3 9 -16
0 -22 15 -21 57 0 6 -6 9 -15 6 -10 -4 -13 -2 -8 5 4 7 0 22 -8 34 -9 12 -16
31 -16 41 0 10 -4 15 -10 12 -6 -3 -10 4 -10 17 0 18 -2 20 -10 8 -8 -12 -10
-11 -10 8 0 12 -5 22 -11 22 -6 0 -8 7 -5 16 6 14 4 15 -9 4 -9 -7 -15 -9 -13
-4 4 13 -27 55 -35 47 -4 -3 -7 1 -7 10 0 10 -4 17 -10 17 -5 0 -10 7 -10 16
0 8 -3 13 -7 11 -9 -6 -34 19 -27 26 3 3 -8 11 -25 18 -16 7 -27 18 -24 24 3
5 0 5 -7 -2 -11 -10 -18 -7 -37 13 -13 14 -20 30 -17 36 5 7 1 9 -9 5 -8 -3
-21 1 -28 9 -10 12 -9 13 7 9 13 -5 12 -2 -4 7 -12 8 -20 17 -16 20 3 4 -6 5
-20 4 -14 -2 -23 1 -20 6 3 5 -3 16 -13 26 -11 9 -12 13 -3 8 8 -5 3 2 -12 17
-15 15 -33 27 -39 27 -7 0 -10 3 -6 6 7 7 -17 34 -30 34 -4 0 -19 12 -32 25
-12 14 -27 22 -32 19 -5 -3 -9 -2 -8 3 3 18 -1 36 -8 30 -9 -9 -34 13 -27 24
3 5 -2 6 -10 3 -9 -4 -18 1 -22 10 -3 9 -10 13 -15 10 -5 -3 -9 -2 -9 3 0 9
-91 53 -109 53 -6 0 -11 5 -11 11 0 5 -4 8 -9 5 -5 -4 -12 0 -14 6 -4 10 -6 9
-6 -1 -1 -8 -10 -3 -22 13 -18 23 -23 25 -37 14 -9 -7 -13 -8 -9 -2 6 10 -79
52 -95 47 -4 -2 -5 4 -2 11 4 11 -1 14 -20 12 -14 -2 -23 1 -20 5 3 5 -4 9
-15 9 -12 0 -21 5 -21 11 0 5 -4 7 -10 4 -5 -3 -10 -1 -10 4 0 6 -3 10 -7 10
-19 -3 -34 2 -29 9 2 4 -4 8 -14 9 -10 1 -40 9 -67 18 -26 9 -56 18 -67 21
-10 2 -25 9 -33 15 -8 7 -30 13 -50 15 -20 1 -38 6 -42 12 -3 5 -16 8 -28 7
-13 -1 -23 2 -23 7 0 4 -14 8 -31 8 -17 0 -28 4 -24 10 3 6 2 10 -4 10 -5 0
-13 -5 -17 -11 -4 -8 -9 -8 -13 -1 -4 6 -28 12 -54 13 -26 2 -47 6 -47 11 0 4
-46 8 -102 8 -70 0 -98 3 -88 10 21 13 3 13 -22 -1 -16 -9 -23 -8 -29 2 -6 10
-9 11 -9 2 0 -15 -21 -13 -32 2 -5 6 -8 5 -8 -2z m-1670 -3063 c0 -5 -4 -10
-10 -10 -5 0 -10 5 -10 10 0 6 5 10 10 10 6 0 10 -4 10 -10z"/>
<path d="M3840 3520 c0 -5 5 -10 11 -10 5 0 7 5 4 10 -3 6 -8 10 -11 10 -2 0
-4 -4 -4 -10z"/>
<path d="M3580 2650 c-9 -6 -10 -10 -3 -10 6 0 15 5 18 10 8 12 4 12 -15 0z"/>
<path d="M8375 2330 c3 -5 8 -10 11 -10 2 0 4 5 4 10 0 6 -5 10 -11 10 -5 0
-7 -4 -4 -10z"/>
</g>
</svg>
